<mxfile host="65bd71144e">
    <diagram id="T9uuaTeBy4bPSP1g8a4x" name="Page-1">
        <mxGraphModel dx="1170" dy="825" grid="1" gridSize="10" guides="1" tooltips="1" connect="1" arrows="1" fold="1" page="1" pageScale="1" pageWidth="827" pageHeight="1169" background="#FFFFFF" math="0" shadow="0">
            <root>
                <mxCell id="0"/>
                <mxCell id="1" parent="0"/>
                <mxCell id="172" value="" style="rounded=0;whiteSpace=wrap;html=1;fontSize=12;strokeColor=none;" vertex="1" parent="1">
                    <mxGeometry x="80" y="70" width="410" height="230" as="geometry"/>
                </mxCell>
                <mxCell id="164" value="" style="endArrow=none;html=1;exitX=0;exitY=1;exitDx=0;exitDy=0;" edge="1" parent="1" source="167">
                    <mxGeometry width="50" height="50" relative="1" as="geometry">
                        <mxPoint x="120" y="300" as="sourcePoint"/>
                        <mxPoint x="120" y="80" as="targetPoint"/>
                    </mxGeometry>
                </mxCell>
                <mxCell id="165" value="" style="endArrow=none;html=1;" edge="1" parent="1">
                    <mxGeometry width="50" height="50" relative="1" as="geometry">
                        <mxPoint x="120" y="240" as="sourcePoint"/>
                        <mxPoint x="480" y="240" as="targetPoint"/>
                    </mxGeometry>
                </mxCell>
                <mxCell id="166" value="NPV" style="rounded=0;whiteSpace=wrap;html=1;fillColor=none;strokeColor=none;rotation=-90;fontStyle=1" vertex="1" parent="1">
                    <mxGeometry x="19.69" y="139.69" width="160" height="40.63" as="geometry"/>
                </mxCell>
                <mxCell id="167" value="r" style="rounded=0;whiteSpace=wrap;html=1;fillColor=none;strokeColor=none;rotation=0;fontStyle=1" vertex="1" parent="1">
                    <mxGeometry x="120" y="240" width="360" height="50" as="geometry"/>
                </mxCell>
                <mxCell id="168" value="" style="endArrow=none;html=1;edgeStyle=orthogonalEdgeStyle;curved=1;fillColor=#dae8fc;strokeColor=#6c8ebf;" edge="1" parent="1">
                    <mxGeometry width="50" height="50" relative="1" as="geometry">
                        <mxPoint x="480" y="260" as="sourcePoint"/>
                        <mxPoint x="120" y="100" as="targetPoint"/>
                        <Array as="points">
                            <mxPoint x="120" y="260"/>
                        </Array>
                    </mxGeometry>
                </mxCell>
                <mxCell id="169" value="IRR" style="rounded=0;whiteSpace=wrap;html=1;fillColor=none;strokeColor=none;rotation=0;" vertex="1" parent="1">
                    <mxGeometry x="252" y="240" width="38" height="20" as="geometry"/>
                </mxCell>
                <mxCell id="171" value="0" style="rounded=0;whiteSpace=wrap;html=1;fillColor=none;strokeColor=none;rotation=0;" vertex="1" parent="1">
                    <mxGeometry x="100" y="230" width="20" height="20" as="geometry"/>
                </mxCell>
            </root>
        </mxGraphModel>
    </diagram>
</mxfile>